Coordinates
version=1
nRows=9
nColumns=24
inDegrees=yes

Units are S.I. units (second, meters, Newtons, ...)
Angles are in degrees.

endheader
time	pelvis_tilt	pelvis_list	pelvis_rotation	pelvis_tx	pelvis_ty	pelvis_tz	hip_flexion_r	hip_adduction_r	hip_rotation_r	knee_angle_r	ankle_angle_r	subtalar_angle_r	mtp_angle_r	hip_flexion_l	hip_adduction_l	hip_rotation_l	knee_angle_l	ankle_angle_l	subtalar_angle_l	mtp_angle_l	lumbar_extension	lumbar_bending	lumbar_rotation
      1.10800000	     -0.64706242	      0.17502808	     -6.36776603	     -0.16388569	      0.99412994	      0.28310379	    -15.39187733	      3.23702368	      4.68605691	     -7.39772457	     12.70969969	     -9.59289389	      7.13923930	     21.92599079	     -0.58382150	    -10.47890378	      4.25880439	      2.85419919	     -6.48584296	      6.82199651	     -3.26802999	      0.13139549	     12.64717427
      1.11216667	     -0.62582455	      0.24758002	     -6.45951773	     -0.15794010	      0.99361518	      0.28295525	    -15.50420557	      3.08456599	      4.61965635	     -7.92373360	     12.82220272	     -9.31426458	      7.16766289	     21.94421402	     -0.47595610	    -10.35884372	      3.94003760	      2.89480536	     -6.79862003	      6.79926664	     -3.26255931	      0.01826891	     12.81249288
      1.11633333	     -0.59055828	      0.33470605	     -6.54626131	     -0.15192465	      0.99316965	      0.28283697	    -15.65974711	      2.92332463	      4.65027755	     -8.38884989	     12.78735617	     -9.30682868	      7.17728265	     21.96684594	     -0.35866042	    -10.28925051	      3.51031699	      2.97107172	     -6.98005141	      6.79734537	     -3.25378309	     -0.11654035	     12.84199863
      1.12050000	     -0.58891343	      0.42635614	     -6.63551418	     -0.14588373	      0.99270271	      0.28267426	    -15.72362100	      2.74915036	      4.56018421	     -8.96857600	     12.87872030	     -8.99011391	      7.24149624	     22.00884498	     -0.23568365	    -10.08519932	      3.05915055	      2.94847995	     -7.35146210	      6.80011544	     -3.20316789	     -0.25461584	     13.00267381
      1.12466667	     -0.55871546	      0.53742681	     -6.72321085	     -0.13977134	      0.99231558	      0.28255461	    -15.83755466	      2.55876684	      4.54989663	     -9.50661114	     12.86526527	     -8.87938623	      7.29509973	     22.02396299	     -0.09510682	     -9.89878975	      2.54201158	      2.96495042	     -7.62233571	      6.81183662	     -3.17475256	     -0.43244836	     13.07734038
      1.12883333	     -0.53787803	      0.64960637	     -6.81311361	     -0.13363974	      0.99194868	      0.28238683	    -15.90838941	      2.35887750	      4.46741988	    -10.10688152	     12.84928273	     -8.63982436	      7.39954894	     22.04732464	      0.04977074	     -9.67782122	      1.99328712	      2.82918042	     -8.00348793	      6.84258356	     -3.13114917	     -0.58269058	     13.19940127
      1.13300000	     -0.51193977	      0.77480759	     -6.90014285	     -0.12745166	      0.99162698	      0.28222230	    -15.97669783	      2.14647932	      4.39958984	    -10.72095528	     12.79311961	     -8.44749282	      7.54464947	     22.05613462	      0.21022446	     -9.41847765	      1.42159240	      2.68557441	     -8.38201518	      6.89516918	     -3.08760173	     -0.76281866	     13.29247410
      1.13716667	     -0.49011227	      0.91849248	     -6.98603249	     -0.12120044	      0.99133569	      0.28207202	    -16.03527051	      1.91744500	      4.34981706	    -11.34361375	     12.69530743	     -8.31356963	      7.66484478	     22.07011196	      0.38785226	     -9.16249992	      0.81207884	      2.55228927	     -8.70300838	      6.94256553	     -3.02491848	     -0.98131098	     13.37970298
      1.14133333	     -0.46832407	      1.06581057	     -7.07284534	     -0.11492297	      0.99108111	      0.28188658	    -16.06514021	      1.67776039	      4.25418752	    -12.01772763	     12.57610988	     -8.10784440	      7.81647386	     22.07556749	      0.57360892	     -8.88497296	      0.20124044	      2.31025287	     -9.09345141	      7.00225812	     -2.95725665	     -1.18631952	     13.47593897
